<mxfile host="65bd71144e">
    <diagram id="ZI7goCzSM7gJgq6TGtf0" name="Page-1">
        <mxGraphModel dx="2361" dy="1144" grid="1" gridSize="10" guides="1" tooltips="1" connect="1" arrows="1" fold="1" page="1" pageScale="1" pageWidth="827" pageHeight="1169" math="0" shadow="0">
            <root>
                <mxCell id="0"/>
                <mxCell id="1" parent="0"/>
                <mxCell id="38" style="edgeStyle=none;html=1;entryX=1;entryY=0.5;entryDx=0;entryDy=0;" edge="1" parent="1" source="2" target="37">
                    <mxGeometry relative="1" as="geometry"/>
                </mxCell>
                <mxCell id="2" value="update(k, v)&lt;br&gt;" style="rounded=1;whiteSpace=wrap;html=1;absoluteArcSize=1;arcSize=14;strokeWidth=2;" parent="1" vertex="1">
                    <mxGeometry x="-148" y="415" width="120" height="90" as="geometry"/>
                </mxCell>
                <mxCell id="25" value="N" style="edgeStyle=none;html=1;entryX=0.5;entryY=0;entryDx=0;entryDy=0;exitX=0.5;exitY=0;exitDx=0;exitDy=0;exitPerimeter=0;" parent="1" source="26" target="13" edge="1">
                    <mxGeometry relative="1" as="geometry">
                        <mxPoint x="160" y="110" as="targetPoint"/>
                        <mxPoint x="145" y="535" as="sourcePoint"/>
                        <Array as="points">
                            <mxPoint x="80" y="20"/>
                            <mxPoint x="330" y="20"/>
                        </Array>
                    </mxGeometry>
                </mxCell>
                <mxCell id="8" value="Hotkeys&lt;br&gt;&lt;br&gt;toggle_event_position&lt;br&gt;remove_overlays&lt;br&gt;show_overlays" style="rounded=1;whiteSpace=wrap;html=1;absoluteArcSize=1;arcSize=14;strokeWidth=2;" parent="1" vertex="1">
                    <mxGeometry x="-745" y="69.5" width="150" height="100" as="geometry"/>
                </mxCell>
                <mxCell id="9" value="remove_TVBanner" style="rounded=1;whiteSpace=wrap;html=1;absoluteArcSize=1;arcSize=14;strokeWidth=2;" parent="1" vertex="1">
                    <mxGeometry x="-440" y="69.5" width="130" height="100" as="geometry"/>
                </mxCell>
                <mxCell id="10" value="tvBanner_remove" style="rounded=1;whiteSpace=wrap;html=1;absoluteArcSize=1;arcSize=14;strokeWidth=2;" parent="1" vertex="1">
                    <mxGeometry x="-160" y="69.5" width="100" height="100" as="geometry"/>
                </mxCell>
                <mxCell id="11" value="" style="edgeStyle=elbowEdgeStyle;elbow=horizontal;endArrow=classic;html=1;entryX=0;entryY=0.25;entryDx=0;entryDy=0;exitX=1;exitY=0.25;exitDx=0;exitDy=0;" parent="1" source="9" target="10" edge="1">
                    <mxGeometry width="50" height="50" relative="1" as="geometry">
                        <mxPoint x="130" y="179.5" as="sourcePoint"/>
                        <mxPoint x="180" y="129.5" as="targetPoint"/>
                        <Array as="points">
                            <mxPoint x="-230" y="120"/>
                            <mxPoint x="160" y="229.5"/>
                        </Array>
                    </mxGeometry>
                </mxCell>
                <mxCell id="12" value="" style="edgeStyle=elbowEdgeStyle;elbow=horizontal;endArrow=classic;html=1;entryX=1;entryY=0.75;entryDx=0;entryDy=0;exitX=0;exitY=0.75;exitDx=0;exitDy=0;" parent="1" source="10" target="9" edge="1">
                    <mxGeometry width="50" height="50" relative="1" as="geometry">
                        <mxPoint x="210" y="184.5" as="sourcePoint"/>
                        <mxPoint x="190" y="249.5" as="targetPoint"/>
                        <Array as="points">
                            <mxPoint x="-230" y="145"/>
                            <mxPoint x="-240" y="110"/>
                        </Array>
                    </mxGeometry>
                </mxCell>
                <mxCell id="15" value="" style="edgeStyle=none;html=1;" parent="1" source="13" target="14" edge="1">
                    <mxGeometry relative="1" as="geometry"/>
                </mxCell>
                <mxCell id="13" value="init" style="rounded=1;whiteSpace=wrap;html=1;absoluteArcSize=1;arcSize=31;strokeWidth=2;" parent="1" vertex="1">
                    <mxGeometry x="250" y="50" width="160" height="40" as="geometry"/>
                </mxCell>
                <mxCell id="17" value="" style="edgeStyle=none;html=1;" parent="1" source="14" target="16" edge="1">
                    <mxGeometry relative="1" as="geometry"/>
                </mxCell>
                <mxCell id="14" value="tvBanner_remove" style="whiteSpace=wrap;html=1;rounded=1;arcSize=31;strokeWidth=2;" parent="1" vertex="1">
                    <mxGeometry x="270" y="122" width="120" height="60" as="geometry"/>
                </mxCell>
                <mxCell id="19" value="" style="edgeStyle=none;html=1;" parent="1" source="16" target="18" edge="1">
                    <mxGeometry relative="1" as="geometry"/>
                </mxCell>
                <mxCell id="16" value="check textFile" style="whiteSpace=wrap;html=1;rounded=1;arcSize=31;strokeWidth=2;" parent="1" vertex="1">
                    <mxGeometry x="270" y="218" width="120" height="60" as="geometry"/>
                </mxCell>
                <mxCell id="21" value="" style="edgeStyle=none;html=1;" parent="1" source="18" target="20" edge="1">
                    <mxGeometry relative="1" as="geometry"/>
                </mxCell>
                <mxCell id="18" value="if textFile found" style="whiteSpace=wrap;html=1;rounded=1;arcSize=31;strokeWidth=2;" parent="1" vertex="1">
                    <mxGeometry x="270" y="313" width="120" height="60" as="geometry"/>
                </mxCell>
                <mxCell id="24" style="edgeStyle=none;html=1;entryX=1;entryY=0.5;entryDx=0;entryDy=0;" parent="1" source="20" target="27" edge="1">
                    <mxGeometry relative="1" as="geometry">
                        <mxPoint x="200" y="610" as="targetPoint"/>
                    </mxGeometry>
                </mxCell>
                <mxCell id="29" style="edgeStyle=none;html=1;entryX=0.5;entryY=0;entryDx=0;entryDy=0;" parent="1" source="20" target="13" edge="1">
                    <mxGeometry relative="1" as="geometry">
                        <Array as="points">
                            <mxPoint x="470" y="460"/>
                            <mxPoint x="470" y="20"/>
                            <mxPoint x="330" y="20"/>
                        </Array>
                    </mxGeometry>
                </mxCell>
                <mxCell id="20" value="Add timer" style="rhombus;whiteSpace=wrap;html=1;rounded=1;arcSize=31;strokeWidth=2;" parent="1" vertex="1">
                    <mxGeometry x="290" y="420" width="80" height="80" as="geometry"/>
                </mxCell>
                <mxCell id="30" value="Y" style="edgeStyle=none;html=1;entryX=1;entryY=0.5;entryDx=0;entryDy=0;" parent="1" source="26" target="2" edge="1">
                    <mxGeometry relative="1" as="geometry"/>
                </mxCell>
                <mxCell id="26" value="if ft or if fs" style="strokeWidth=2;html=1;shape=mxgraph.flowchart.decision;whiteSpace=wrap;" parent="1" vertex="1">
                    <mxGeometry x="30" y="410" width="100" height="100" as="geometry"/>
                </mxCell>
                <mxCell id="28" style="edgeStyle=none;html=1;entryX=1;entryY=0.5;entryDx=0;entryDy=0;entryPerimeter=0;" parent="1" source="27" target="26" edge="1">
                    <mxGeometry relative="1" as="geometry"/>
                </mxCell>
                <mxCell id="27" value="checkFile contents" style="rounded=1;whiteSpace=wrap;html=1;absoluteArcSize=1;arcSize=14;strokeWidth=2;" parent="1" vertex="1">
                    <mxGeometry x="180" y="410" width="70" height="100" as="geometry"/>
                </mxCell>
                <mxCell id="33" value="Individual" style="swimlane;startSize=20;" parent="1" vertex="1">
                    <mxGeometry x="-545" y="620" width="250" height="500" as="geometry"/>
                </mxCell>
                <mxCell id="47" value="Description" style="swimlane;startSize=20;" vertex="1" collapsed="1" parent="33">
                    <mxGeometry y="20" width="100" height="20" as="geometry">
                        <mxRectangle y="20" width="250" height="480" as="alternateBounds"/>
                    </mxGeometry>
                </mxCell>
                <mxCell id="48" value="Awards" style="swimlane;startSize=20;" vertex="1" collapsed="1" parent="33">
                    <mxGeometry y="40" width="80" height="20" as="geometry">
                        <mxRectangle y="40" width="250" height="460" as="alternateBounds"/>
                    </mxGeometry>
                </mxCell>
                <mxCell id="32" value="Synchro" style="swimlane;startSize=20;" parent="1" vertex="1">
                    <mxGeometry x="-797" y="620" width="250" height="500" as="geometry"/>
                </mxCell>
                <mxCell id="49" value="Description" style="swimlane;startSize=20;" vertex="1" collapsed="1" parent="32">
                    <mxGeometry y="20" width="100" height="20" as="geometry">
                        <mxRectangle y="20" width="250" height="500" as="alternateBounds"/>
                    </mxGeometry>
                </mxCell>
                <mxCell id="53" value="Awards" style="swimlane;startSize=20;" vertex="1" collapsed="1" parent="32">
                    <mxGeometry y="40" width="80" height="20" as="geometry">
                        <mxRectangle y="40" width="250" height="460" as="alternateBounds"/>
                    </mxGeometry>
                </mxCell>
                <mxCell id="40" style="edgeStyle=none;html=1;" edge="1" parent="1" source="37" target="39">
                    <mxGeometry relative="1" as="geometry"/>
                </mxCell>
                <mxCell id="37" value="enable TVBanner2&lt;br&gt;event" style="rounded=1;whiteSpace=wrap;html=1;absoluteArcSize=1;arcSize=14;strokeWidth=2;" vertex="1" parent="1">
                    <mxGeometry x="-298" y="427.5" width="100" height="65" as="geometry"/>
                </mxCell>
                <mxCell id="43" style="edgeStyle=none;html=1;entryX=1;entryY=0.5;entryDx=0;entryDy=0;" edge="1" parent="1" source="39" target="41">
                    <mxGeometry relative="1" as="geometry"/>
                </mxCell>
                <mxCell id="39" value="flag file process and insert" style="rounded=1;whiteSpace=wrap;html=1;absoluteArcSize=1;arcSize=14;strokeWidth=2;" vertex="1" parent="1">
                    <mxGeometry x="-448" y="427.5" width="100" height="65" as="geometry"/>
                </mxCell>
                <mxCell id="44" style="edgeStyle=none;html=1;entryX=0.5;entryY=0;entryDx=0;entryDy=0;" edge="1" parent="1" source="41" target="42">
                    <mxGeometry relative="1" as="geometry"/>
                </mxCell>
                <mxCell id="41" value="event data generation and insert" style="rounded=1;whiteSpace=wrap;html=1;absoluteArcSize=1;arcSize=14;strokeWidth=2;" vertex="1" parent="1">
                    <mxGeometry x="-598" y="427.5" width="100" height="65" as="geometry"/>
                </mxCell>
                <mxCell id="45" style="edgeStyle=none;html=1;entryX=0.5;entryY=0;entryDx=0;entryDy=0;" edge="1" parent="1" source="42" target="32">
                    <mxGeometry relative="1" as="geometry"/>
                </mxCell>
                <mxCell id="46" style="edgeStyle=none;html=1;entryX=0.5;entryY=0;entryDx=0;entryDy=0;" edge="1" parent="1" source="42" target="33">
                    <mxGeometry relative="1" as="geometry"/>
                </mxCell>
                <mxCell id="42" value="generate lineOne of the TVBanner" style="rounded=1;whiteSpace=wrap;html=1;absoluteArcSize=1;arcSize=14;strokeWidth=2;" vertex="1" parent="1">
                    <mxGeometry x="-598" y="530" width="100" height="50" as="geometry"/>
                </mxCell>
            </root>
        </mxGraphModel>
    </diagram>
</mxfile>